<?xml version="1.0" encoding="utf-8"?><svg viewBox="0 0 512 512" xmlns="http://www.w3.org/2000/svg" xmlns:xlink="http://www.w3.org/1999/xlink"><style>:root>svg{display:none}:root>svg:target{display:block}</style><svg viewBox="0 0 512.001 512.001" id="instagram" xmlns="http://www.w3.org/2000/svg"><path fill="#f5e09c" d="M373.406 0H138.594C62.172 0 0 62.172 0 138.594V373.41C0 449.828 62.172 512 138.594 512H373.41C449.828 512 512 449.828 512 373.41V138.594C512 62.172 449.828 0 373.406 0zM256 395.996c-77.195 0-139.996-62.8-139.996-139.996S178.804 116.004 256 116.004 395.996 178.804 395.996 256 333.196 395.996 256 395.996zM399.344 149.02c-22.813 0-41.367-18.555-41.367-41.368s18.554-41.37 41.367-41.37 41.37 18.558 41.37 41.37-18.558 41.368-41.37 41.368zm0 0"/><path d="M256 146.02c-60.64 0-109.98 49.335-109.98 109.98 0 60.64 49.34 109.98 109.98 109.98 60.645 0 109.98-49.34 109.98-109.98 0-60.645-49.335-109.98-109.98-109.98zM399.344 96.3c-6.258 0-11.352 5.095-11.352 11.352 0 6.258 5.094 11.352 11.352 11.352 6.261 0 11.355-5.09 11.355-11.352 0-6.261-5.094-11.351-11.355-11.351zm0 0" fill="#f5e09c"/></svg><svg data-name="Capa 1" viewBox="0 0 53.94 53.94" id="phone" xmlns="http://www.w3.org/2000/svg"><path fill="#f5e09c" d="M53.36 40.91c-2-3.8-9-7.91-9.29-8.09a5.54 5.54 0 00-2.7-.82 3.37 3.37 0 00-3 1.68 33.35 33.35 0 01-2.59 2.87C33.39 38.2 31.53 38 29.47 36L18 24.47c-2-2-2.23-3.93-.63-6.29a33.68 33.68 0 012.87-2.6 3.32 3.32 0 001.55-2 4.94 4.94 0 00-.65-3.73c-.17-.3-4.29-7.27-8.09-9.28a4.93 4.93 0 00-5.8.87L4.7 4C.69 8-.77 12.55.38 17.51c1 4.13 3.74 8.53 8.28 13.07l14.7 14.7c5.75 5.75 11.22 8.66 16.28 8.66 3.72 0 7.19-1.58 10.31-4.7l2.54-2.54a4.91 4.91 0 00.87-5.79z"/></svg></svg>